HIERARCHY
ROOT Hips
{
	OFFSET 0.000000 0.000000 0.000000
	CHANNELS 6 Xposition Yposition Zposition Zrotation Yrotation Xrotation 
	JOINT LowerBack
	{
		OFFSET 0.000000 0.000000 0.000000
		CHANNELS 3 Zrotation Yrotation Xrotation
		JOINT Spine
		{
			OFFSET 0.028270 2.035590 -0.193380
			CHANNELS 3 Zrotation Yrotation Xrotation
			JOINT Spine1
			{
				OFFSET 0.056720 2.048850 -0.042750
				CHANNELS 3 Zrotation Yrotation Xrotation
				JOINT Neck
				{
					OFFSET 0.000000 0.000000 0.000000
					CHANNELS 3 Zrotation Yrotation Xrotation
					JOINT Neck1
					{
						OFFSET -0.054170 1.746240 0.172020
						CHANNELS 3 Zrotation Yrotation Xrotation
						JOINT Head
						{
							OFFSET 0.104070 1.761360 -0.123970
							CHANNELS 3 Zrotation Yrotation Xrotation
							End Site
							{
								OFFSET 0.000000 0.000000 0.000000
							}
						}
					}
				}
				JOINT LeftShoulder
				{
					OFFSET 0.000000 0.000000 0.000000
					CHANNELS 3 Zrotation Yrotation Xrotation
					JOINT LeftArm
					{
						OFFSET 3.362410 1.200890 -0.311210
						CHANNELS 3 Zrotation Yrotation Xrotation
						JOINT LeftForeArm
						{
							OFFSET 4.983000 -0.000000 -0.000000
							CHANNELS 3 Zrotation Yrotation Xrotation
							JOINT LeftHand
							{
								OFFSET 3.483560 -0.000000 -0.000000
								CHANNELS 3 Zrotation Yrotation Xrotation
								JOINT LeftFingerBase
								{
									OFFSET 0.000000 0.000000 0.000000
									CHANNELS 3 Zrotation Yrotation Xrotation
									JOINT LeftHandIndex1
									{
										OFFSET 0.715260 -0.000000 -0.000000
										CHANNELS 3 Zrotation Yrotation Xrotation
										End Site
										{
											OFFSET 0.000000 0.000000 0.000000
										}
									}
								}
								JOINT LThumb
								{
									OFFSET 0.000000 0.000000 0.000000
									CHANNELS 3 Zrotation Yrotation Xrotation
									End Site
									{
										OFFSET 0.000000 0.000000 0.000000
									}
								}
							}
						}
					}
				}
				JOINT RightShoulder
				{
					OFFSET 0.000000 0.000000 0.000000
					CHANNELS 3 Zrotation Yrotation Xrotation
					JOINT RightArm
					{
						OFFSET -3.136600 1.374050 -0.404650
						CHANNELS 3 Zrotation Yrotation Xrotation
						JOINT RightForeArm
						{
							OFFSET -5.241900 -0.000000 -0.000000
							CHANNELS 3 Zrotation Yrotation Xrotation
							JOINT RightHand
							{
								OFFSET -3.444170 -0.000000 -0.000000
								CHANNELS 3 Zrotation Yrotation Xrotation
								JOINT RightFingerBase
								{
									OFFSET 0.000000 0.000000 0.000000
									CHANNELS 3 Zrotation Yrotation Xrotation
									JOINT RightHandIndex1
									{
										OFFSET -0.622530 -0.000000 -0.000000
										CHANNELS 3 Zrotation Yrotation Xrotation
										End Site
										{
											OFFSET 0.000000 0.000000 0.000000
										}
									}
								}
								JOINT RThumb
								{
									OFFSET 0.000000 0.000000 0.000000
									CHANNELS 3 Zrotation Yrotation Xrotation
									End Site
									{
										OFFSET 0.000000 0.000000 0.000000
									}
								}
							}
						}
					}
				}
			}
		}
	}
}
}
MOTION
Frames: 11
Frame Time: 0.008333
-12.649843 15.813251 -0.168963 -142.553077 89.706918 -115.428839 6.040546 -3.373484 8.434630 0.676050 -3.360960 -1.089784 -5.318505 -3.344531 0.405993 8.191195 -13.875666 -11.620726 -2.626145 -0.121645 -1.508954 0.000000 0.000000 0.000000 6.550438 8.738384 1.874462 -56.308978 2.907956 2.471928 -179.747155 -87.544255 179.996364 -0.357013 6.102730 -0.014178 -0.064185 0.250348 0.000000 0.000000 0.000000 0.000000 0.000000 0.000000 0.000000 11.397176 -9.790664 3.005138 67.174792 -15.044855 4.203678 2.202000 50.833555 0.006893 2.822293 0.489103 0.014843 0.066832 -0.106381 -0.000000 0.000000 0.000000 0.000000 0.000000 0.000000 0.000000 
-12.498317 15.810780 -0.152660 -140.021453 89.781909 -113.010534 6.194838 -3.349572 8.449089 0.714711 -3.335886 -1.093291 -5.298270 -3.321796 0.393534 8.181355 -13.766998 -11.544813 -2.640234 -0.123999 -1.484960 0.000000 0.000000 0.000000 6.504801 8.703558 1.870790 -56.765149 3.354898 2.777579 -179.777485 -88.008438 179.996843 -0.406858 6.023449 -0.016578 -0.062605 0.247270 0.000000 0.000000 0.000000 0.000000 0.000000 0.000000 0.000000 11.439834 -9.682031 2.976076 66.925984 -14.727484 4.315934 2.208018 50.918555 0.006888 2.817108 0.467738 0.014345 0.067345 -0.106847 -0.000000 0.000000 0.000000 0.000000 0.000000 0.000000 0.000000 
-12.347528 15.809534 -0.135012 -138.285202 89.863632 -111.368274 6.315464 -3.320767 8.448814 0.743713 -3.306606 -1.097801 -5.284291 -3.294539 0.388014 8.194513 -13.674682 -11.464335 -2.653233 -0.126316 -1.459196 0.000000 0.000000 0.000000 6.486854 8.668854 1.863786 -57.240860 3.788284 3.128910 -179.811948 -88.547614 179.997339 -0.473783 5.956124 -0.019779 -0.060703 0.243547 0.000000 0.000000 0.000000 0.000000 0.000000 0.000000 0.000000 11.508661 -9.594346 2.940753 66.688632 -14.371737 4.408941 2.209851 51.038548 0.006853 2.784368 0.447672 0.013748 0.068003 -0.107613 -0.000000 0.000000 0.000000 0.000000 0.000000 0.000000 0.000000 
-12.197517 15.809367 -0.116221 -137.623063 89.953123 -110.771821 6.406135 -3.286831 8.426081 0.763720 -3.273834 -1.105834 -5.275919 -3.263677 0.386400 8.224377 -13.588201 -11.378553 -2.665211 -0.128630 -1.431416 0.000000 0.000000 0.000000 6.486896 8.628869 1.855979 -57.726795 4.223268 3.513257 -179.849579 -89.145401 179.997945 -0.561391 5.901662 -0.024083 -0.058478 0.239189 0.000000 0.000000 0.000000 0.000000 0.000000 0.000000 0.000000 11.593009 -9.514324 2.900610 66.473498 -13.991894 4.469650 2.207342 51.196355 0.006791 2.725357 0.432249 0.013051 0.068791 -0.108737 -0.000000 0.000000 0.000000 0.000000 0.000000 0.000000 0.000000 
-12.048669 15.810178 -0.096492 41.688160 89.947326 68.496489 6.468981 -3.246412 8.390037 0.774950 -3.236110 -1.115440 -5.272192 -3.227707 0.387763 8.266887 -13.508520 -11.291310 -2.675383 -0.130806 -1.403066 0.000000 0.000000 0.000000 6.499649 8.589072 1.848720 -58.217349 4.651912 3.927914 -179.889982 -89.796689 179.998608 -0.666464 5.858967 -0.029189 -0.056018 0.234298 0.000000 0.000000 0.000000 0.000000 0.000000 0.000000 0.000000 11.685202 -9.440516 2.857074 66.285566 -13.587775 4.496894 2.200039 51.393740 0.006700 2.637979 0.422321 0.012456 0.069714 -0.110267 -0.000000 0.000000 0.000000 0.000000 0.000000 0.000000 0.000000 
-11.901263 15.811964 -0.076207 39.445437 89.841295 66.232193 6.512660 -3.198707 8.345576 0.779259 -3.192545 -1.125809 -5.272197 -3.185789 0.390717 8.317108 -13.433105 -11.205559 -2.683228 -0.132751 -1.375250 0.000000 0.000000 0.000000 6.517077 8.554127 1.843727 -58.707792 5.071444 4.367202 0.067311 -89.506454 -0.000698 -0.785694 5.826556 -0.034998 -0.053413 0.228990 0.000000 0.000000 0.000000 0.000000 0.000000 0.000000 0.000000 11.776322 -9.367870 2.811546 66.129037 -13.160479 4.489986 2.187903 51.630622 0.006582 2.523329 0.419350 0.011962 0.070762 -0.112238 -0.000000 0.000000 0.000000 0.000000 0.000000 0.000000 0.000000 
-11.755590 15.814704 -0.055683 35.509902 89.736325 62.294674 6.550818 -3.143393 8.297983 0.779744 -3.142370 -1.136204 -5.275159 -3.137225 0.393255 8.370511 -13.358012 -11.123390 -2.688413 -0.134404 -1.348813 0.000000 0.000000 0.000000 6.531359 8.526311 1.842718 -59.194026 5.482508 4.823984 0.022811 -88.773460 -0.000001 -0.914665 5.802946 -0.041306 -0.050750 0.223385 0.000000 0.000000 0.000000 0.000000 0.000000 0.000000 0.000000 11.858098 -9.290004 2.765572 66.005816 -12.711334 4.450630 2.171091 51.905877 0.006438 2.383686 0.424413 0.011469 0.071919 -0.114674 -0.000000 0.000000 0.000000 0.000000 0.000000 0.000000 0.000000 
-11.611829 15.818371 -0.035294 29.987478 89.647916 56.790726 6.603096 -3.082547 8.248777 0.781416 -3.086873 -1.146741 -5.280392 -3.083408 0.393374 8.422641 -13.278762 -11.046182 -2.690793 -0.135737 -1.324299 0.000000 0.000000 0.000000 6.534498 8.505345 1.847362 -59.674655 5.888371 5.289894 -0.022950 -88.014688 0.000701 -1.050133 5.786669 -0.047915 -0.048085 0.217611 0.000000 0.000000 0.000000 0.000000 0.000000 0.000000 0.000000 11.922636 -9.201175 2.720424 65.915543 -12.242323 4.384322 2.149986 52.216356 0.006269 2.221143 0.440204 0.011076 0.073176 -0.117583 -0.000000 0.000000 0.000000 0.000000 0.000000 0.000000 0.000000 
-11.470299 15.822986 -0.015203 23.209065 89.589795 50.042495 6.682780 -3.020784 8.207934 0.788436 -3.028746 -1.155199 -5.287436 -3.026939 0.390508 8.472325 -13.193562 -10.976068 -2.690405 -0.136710 -1.302612 0.000000 0.000000 0.000000 6.524290 8.496938 1.858785 -60.146640 6.277693 5.767479 -0.069802 -87.231799 0.001301 -1.181307 5.774102 -0.054424 -0.045629 0.211847 0.000000 0.000000 0.000000 0.000000 0.000000 0.000000 0.000000 11.968309 -9.099938 2.676405 65.857426 -11.754208 4.288874 2.124368 52.564446 0.006079 2.045081 0.459783 0.010584 0.074415 -0.120905 -0.000000 0.000000 0.000000 0.000000 0.000000 0.000000 0.000000 
-11.331069 15.828502 0.004349 16.063090 89.580371 42.941116 6.797701 -2.966854 8.170140 0.804908 -2.975878 -1.163486 -5.294517 -2.975815 0.382667 8.516450 -13.097739 -10.911730 -2.687220 -0.137349 -1.283296 0.000000 0.000000 0.000000 6.494842 8.489311 1.878096 -60.610771 6.663927 6.243418 -0.117009 -86.438591 0.001859 -1.309074 5.765515 -0.060733 -0.043369 0.206163 0.000000 0.000000 0.000000 0.000000 0.000000 0.000000 0.000000 11.989177 -8.984516 2.634190 65.827613 -11.250530 4.177703 2.094741 52.942394 0.005864 1.854600 0.490051 0.010092 0.075634 -0.124637 -0.000000 0.000000 0.000000 0.000000 0.000000 0.000000 0.000000 
-11.194253 15.834902 0.023314 9.478938 89.618389 36.411599 6.931215 -2.925320 8.138479 0.828607 -2.932680 -1.171236 -5.299968 -2.934400 0.369910 8.555220 -12.989513 -10.853232 -2.681328 -0.137649 -1.266435 0.000000 0.000000 0.000000 6.446956 8.481694 1.905243 -61.064996 7.043203 6.717306 -0.164334 -85.638330 0.002333 -1.427758 5.758896 -0.066539 -0.041430 0.200646 0.000000 0.000000 0.000000 0.000000 0.000000 0.000000 0.000000 11.986363 -8.855380 2.593669 65.823791 -10.733868 4.055163 2.061004 53.349479 0.005625 1.655306 0.527655 0.009600 0.076742 -0.128734 -0.000000 0.000000 0.000000 0.000000 0.000000 0.000000 0.000000 
